<svg width="187" height="129" viewBox="0 0 187 129" fill="none" xmlns="http://www.w3.org/2000/svg">
<g clip-path="url(#clip0_2558_2066)">
<path d="M186.999 107.046C185.696 110.56 183.075 111.803 179.434 111.698C174.814 111.566 170.181 111.698 165.557 111.639C164.395 111.626 163.906 111.985 163.503 113.105C160.004 122.869 151.222 129.068 141.137 128.995C131.005 128.923 122.452 122.823 118.967 113.096C118.574 111.994 118.075 111.63 116.909 111.635C106.32 111.68 95.7268 111.689 85.1382 111.626C83.7751 111.616 83.2995 112.126 82.8787 113.31C79.5671 122.591 71.3753 128.545 61.4636 128.959C52.0322 129.355 43.049 124.07 39.3761 115.199C38.0909 112.094 36.5586 111.389 33.5718 111.598C30.0591 111.844 26.5143 111.717 22.9878 111.635C19.4156 111.553 16.9639 109.363 16.7581 106.259C16.5203 102.617 18.9628 100.014 22.8917 99.8862C25.7504 99.7906 28.6137 99.8635 31.4724 99.8635C33.5352 99.8635 35.5981 99.8635 37.0617 99.8635C39.1749 96.3858 40.6751 92.9264 43.0353 90.2044C54.8085 76.6125 76.8777 80.8503 82.8329 97.7787C83.4367 99.4948 84.1868 99.9136 85.8883 99.9044C96.0515 99.8271 106.215 99.8362 116.383 99.8999C117.805 99.909 118.464 99.5631 118.949 98.1292C122.228 88.4519 131.133 82.1066 141.228 82.1021C151.364 82.1021 160.338 88.543 163.581 98.2931C164.011 99.5904 164.605 99.9272 165.872 99.8953C168.905 99.8134 171.947 99.868 175.24 99.868C175.24 99.1397 175.24 98.5571 175.24 97.9699C175.24 89.0664 175.267 80.1584 175.199 71.255C175.189 70.3173 174.805 69.2385 174.247 68.4783C172.134 65.5925 169.838 62.8386 167.697 59.9709C166.97 58.9968 166.202 58.6326 164.976 58.6372C150.733 58.6827 136.49 58.6645 122.251 58.6645C117.046 58.6645 114.942 56.5797 114.937 51.4043C114.933 38.9868 114.937 26.5647 114.937 14.1472V11.7393H112.481C83.025 11.7393 53.5644 11.7393 24.1084 11.7256C23.0244 11.7256 21.8992 11.6755 20.8609 11.3979C18.176 10.6832 16.5569 8.16605 16.7673 5.28472C16.9639 2.60822 19.0542 0.432428 21.7849 0.104693C22.567 0.00910375 23.3629 0 24.1541 0C55.7965 0 87.4434 0 119.095 0C124.689 0 126.715 1.99827 126.715 7.51059C126.715 8.83518 126.715 10.1598 126.715 11.7393C127.484 11.7393 128.128 11.7393 128.773 11.7393C136.014 11.7393 143.259 11.8303 150.499 11.6983C153.98 11.6346 156.203 13.0275 157.726 16.1C162.456 25.6498 167.35 35.1177 172.079 44.6675C173.89 48.3272 175.99 51.7548 178.606 54.9001C180.66 57.3718 182.631 59.9163 184.529 62.5108C185.481 63.8081 186.181 65.2875 186.995 66.6849V107.042L186.999 107.046ZM159.844 46.8251C159.743 46.4746 159.725 46.2925 159.647 46.1378C155.997 38.8957 152.361 31.6401 148.638 24.4344C148.377 23.9246 147.444 23.4876 146.817 23.4831C140.551 23.4148 134.28 23.4376 128.014 23.4467C127.612 23.4467 127.209 23.5423 126.802 23.5923V46.8251H159.844ZM141.31 93.9005C134.843 93.8505 129.606 98.9531 129.459 105.444C129.318 111.767 134.623 117.17 141.054 117.256C147.572 117.343 152.979 112.081 153.011 105.608C153.043 99.2171 147.778 93.9506 141.31 93.9005ZM60.6494 93.9005C54.1682 93.9278 48.9356 99.1352 48.9356 105.567C48.9356 112.053 54.2871 117.32 60.8232 117.261C67.2679 117.197 72.4959 111.899 72.4318 105.485C72.3678 99.0168 67.1352 93.8732 60.654 93.9005H60.6494Z" fill="#F22D13"/>
<path d="M30.9422 58.8193C23.0293 58.8193 15.1164 58.8284 7.20352 58.8102C6.23385 58.8102 5.23674 58.8056 4.30366 58.5826C1.85204 57.9954 0.0590669 55.6421 -0.000394026 53.1158C-0.0598549 50.5622 1.58675 48.1861 4.0338 47.4578C4.8937 47.2029 5.82678 47.1028 6.72784 47.1028C22.9195 47.0846 39.1112 47.0846 55.2983 47.1028C56.1993 47.1028 57.1324 47.1984 57.9923 47.4533C60.572 48.218 62.2643 50.8125 62.0265 53.4617C61.7795 56.2293 59.6343 58.4369 56.858 58.7328C56.0758 58.8147 55.28 58.8147 54.4887 58.8147C46.6353 58.8193 38.7864 58.8147 30.933 58.8147L30.9422 58.8193Z" fill="#F22D13"/>
<path d="M40.5333 24.0748C48.8121 24.0748 57.0863 24.0521 65.3651 24.0885C68.9236 24.1022 71.3935 26.2506 71.6177 29.3869C71.8738 32.9419 69.381 35.6776 65.6944 35.764C62.6528 35.8323 59.6111 35.7823 56.5649 35.7823C43.1176 35.7823 29.6657 35.7868 16.2184 35.7777C12.8245 35.7777 10.4553 34.0707 9.8149 31.2395C8.96873 27.4978 11.553 24.175 15.5232 24.1113C20.9981 24.0248 26.4777 24.0839 31.9527 24.0794C34.8114 24.0794 37.6746 24.0794 40.5333 24.0794V24.0748Z" fill="#F22D13"/>
<path d="M29.0487 81.9246C24.5434 81.9246 20.0381 81.9929 15.5374 81.9018C12.3539 81.8381 10.1036 79.7306 9.69648 76.7036C9.33057 73.9861 11.0046 71.3369 13.6895 70.5221C14.4305 70.2946 15.2446 70.2217 16.0268 70.2172C24.7309 70.1944 33.4351 70.1625 42.1393 70.2172C46.7269 70.249 49.5444 73.9679 48.1585 77.9781C47.3215 80.3997 45.1215 81.8973 42.1942 81.92C37.8123 81.9564 33.4305 81.9291 29.0441 81.9291C29.0441 81.9291 29.0441 81.9246 29.0441 81.92L29.0487 81.9246Z" fill="#F22D13"/>
</g>
<defs>
<clipPath id="clip0_2558_2066">
<rect width="187" height="129" fill="white"/>
</clipPath>
</defs>
</svg>
