<svg width="141" height="141" viewBox="0 0 141 141" fill="none" xmlns="http://www.w3.org/2000/svg">
<g clip-path="url(#clip0_2558_1739)">
<path d="M15.4237 0.963258C15.6785 0.962039 15.9334 0.96082 16.196 0.959565C16.4736 0.959615 16.7513 0.959665 17.0374 0.959717C17.4825 0.958209 17.4825 0.958209 17.9367 0.956671C18.9331 0.953655 19.9295 0.952602 20.9259 0.95156C21.6396 0.949847 22.3533 0.94803 23.067 0.946115C25.2102 0.940718 27.3534 0.937959 29.4965 0.935526C30.5069 0.934326 31.5174 0.932859 32.5278 0.931427C35.8886 0.926776 39.2495 0.922813 42.6104 0.920832C43.4821 0.92031 44.3537 0.919785 45.2254 0.91925C45.5503 0.919051 45.5503 0.919051 45.8818 0.918849C49.3883 0.916581 52.8948 0.909656 56.4013 0.900771C60.0051 0.891714 63.6089 0.886802 67.2127 0.885929C69.2345 0.885339 71.2564 0.882965 73.2782 0.875959C75.1814 0.86938 77.0846 0.86844 78.9878 0.871246C79.6848 0.871381 80.3817 0.869658 81.0787 0.865898C86.5981 0.837798 91.3263 1.29643 95.5551 5.26708C99.0099 9.0287 100.344 13.1074 100.333 18.1632C100.335 18.6758 100.335 18.6758 100.337 19.1988C100.34 20.1293 100.341 21.0596 100.34 21.9901C100.34 22.7688 100.342 23.5476 100.343 24.3264C100.346 26.1635 100.346 28.0007 100.344 29.8378C100.343 31.7301 100.346 33.6224 100.352 35.5148C100.357 37.1436 100.358 38.7724 100.357 40.4013C100.357 41.3724 100.358 42.3434 100.361 43.3145C100.366 44.3964 100.363 45.4782 100.36 46.5601C100.362 46.8802 100.364 47.2002 100.366 47.53C100.355 49.3064 100.281 50.6619 99.0275 52.0356C97.7335 53.0431 96.786 53.3446 95.1759 53.3184C94.0321 53.1592 93.1312 52.6845 92.3283 51.8593C91.169 49.9948 91.0822 48.4953 91.107 46.3293C91.1064 46 91.1057 45.6707 91.1051 45.3314C91.1042 44.4336 91.108 43.536 91.1135 42.6382C91.1177 41.6947 91.1147 40.7512 91.1121 39.8076C91.1058 37.004 91.1108 34.2004 91.118 31.3968C91.1235 29.2165 91.1258 27.0362 91.1189 24.8559C91.1162 23.9187 91.1162 22.9816 91.1229 22.0443C91.1294 20.9979 91.1276 19.9518 91.1241 18.9054C91.1282 18.5991 91.1322 18.2928 91.1365 17.9771C91.1148 15.577 90.4667 13.8428 88.9616 11.9716C86.6009 10.105 84.267 9.98199 81.3579 9.98684C81.0833 9.98622 80.8088 9.9856 80.5259 9.98496C79.608 9.98323 78.6901 9.98345 77.7722 9.98368C77.1132 9.98286 76.4542 9.98193 75.7952 9.98089C74.1923 9.97873 72.5893 9.97787 70.9864 9.97772C69.683 9.97759 68.3796 9.97703 67.0762 9.97616C63.3777 9.97375 59.6792 9.97249 55.9806 9.9727C55.6818 9.97271 55.6818 9.97271 55.377 9.97273C55.1776 9.97274 54.9781 9.97275 54.7727 9.97276C51.5404 9.97287 48.3082 9.97026 45.076 9.9664C41.7539 9.96247 38.432 9.96059 35.1099 9.96082C33.2462 9.96091 31.3824 9.96017 29.5186 9.95722C27.7657 9.95446 26.0129 9.95455 24.2601 9.95654C23.6173 9.95683 22.9746 9.95618 22.3319 9.95453C21.4533 9.95241 20.5749 9.95369 19.6963 9.95579C19.443 9.95439 19.1898 9.95298 18.9289 9.95153C16.2293 9.96579 14.0136 10.397 11.9377 12.2109C9.81127 14.6219 9.94334 17.8315 9.9542 20.8688C9.95356 21.2415 9.9527 21.6141 9.95161 21.9867C9.94934 23.004 9.95045 24.0214 9.95215 25.0387C9.95339 26.1385 9.95148 27.2382 9.94997 28.3379C9.94755 30.4897 9.94807 32.6415 9.94965 34.7933C9.95089 36.5426 9.95105 38.2919 9.95046 40.0412C9.95038 40.2905 9.95029 40.5398 9.95021 40.7966C9.95003 41.303 9.94985 41.8095 9.94967 42.3159C9.94812 47.0613 9.94991 51.8067 9.95285 56.552C9.95529 60.6209 9.95486 64.6899 9.95234 68.7588C9.94942 73.4876 9.94827 78.2163 9.94994 82.9451C9.95012 83.4496 9.95029 83.9542 9.95046 84.4587C9.95054 84.7069 9.95063 84.9552 9.95072 85.2109C9.95119 86.9575 9.95039 88.704 9.9491 90.4506C9.94757 92.58 9.94799 94.7094 9.9509 96.8388C9.95233 97.9245 9.9529 99.0103 9.95109 100.096C9.94945 101.091 9.95037 102.086 9.95327 103.081C9.95416 103.609 9.95239 104.137 9.9505 104.665C9.96391 107.657 10.1537 110.254 12.2111 112.562C14.8281 114.821 18.2319 114.555 21.4804 114.546C21.9469 114.547 22.4133 114.548 22.8798 114.549C23.8802 114.552 24.8805 114.552 25.8809 114.552C27.4632 114.551 29.0455 114.555 30.6277 114.559C35.1257 114.572 39.6236 114.579 44.1216 114.581C46.6088 114.582 49.0961 114.587 51.5833 114.596C53.156 114.601 54.7285 114.602 56.3011 114.599C57.279 114.598 58.2569 114.602 59.2348 114.607C59.6878 114.609 60.1408 114.608 60.5939 114.606C61.213 114.603 61.8317 114.606 62.4507 114.612C62.7969 114.612 63.143 114.612 63.4997 114.613C64.922 114.821 65.7555 115.504 66.7277 116.527C67.3835 117.94 67.3782 119.234 67.1721 120.766C66.5407 122.125 65.7308 122.771 64.4377 123.5C63.7042 123.603 63.085 123.648 62.3543 123.639C62.0478 123.641 62.0478 123.641 61.735 123.644C61.053 123.648 60.3713 123.645 59.6893 123.641C59.1992 123.643 58.709 123.645 58.2189 123.647C56.8888 123.652 55.5589 123.65 54.2289 123.647C52.8343 123.644 51.4397 123.647 50.0451 123.648C47.7012 123.65 45.3573 123.648 43.0134 123.643C40.3102 123.637 37.607 123.639 34.9038 123.645C32.5787 123.65 30.2537 123.65 27.9287 123.647C26.5419 123.646 25.1553 123.645 23.7686 123.649C22.4625 123.652 21.1566 123.65 19.8506 123.644C19.3737 123.642 18.8967 123.643 18.4198 123.645C13.426 123.668 9.18326 122.51 5.47133 118.981C2.75954 116.129 0.970232 112.703 0.963502 108.713C0.962283 108.378 0.961065 108.042 0.959809 107.696C0.959833 107.324 0.959885 106.952 0.959961 106.58C0.959059 106.185 0.958039 105.789 0.956914 105.393C0.954178 104.306 0.953159 103.219 0.952433 102.131C0.951365 100.958 0.948746 99.7855 0.946359 98.6126C0.940958 95.78 0.938203 92.9474 0.93577 90.1148C0.934571 88.7803 0.933104 87.4457 0.931672 86.1112C0.92702 81.6736 0.923057 77.2361 0.921076 72.7985C0.920554 71.6472 0.920029 70.4959 0.919494 69.3447C0.919362 69.0585 0.91923 68.7724 0.919093 68.4776C0.916824 63.8438 0.909897 59.2101 0.901015 54.5764C0.891966 49.817 0.887047 45.0576 0.886174 40.2982C0.885582 37.6269 0.883197 34.9555 0.876203 32.2841C0.870259 30.0087 0.868071 27.7333 0.870726 25.4579C0.871966 24.2978 0.871464 23.1378 0.866142 21.9777C0.861304 20.9136 0.861608 19.8497 0.865841 18.7856C0.866488 18.4027 0.865322 18.0197 0.86206 17.6368C0.823728 12.8368 2.2901 8.74376 5.66039 5.31087C8.18256 2.87385 11.8685 0.971185 15.4237 0.963258Z" fill="#F22D13"/>
<path d="M109.347 59.6038C109.527 59.6642 109.706 59.7247 109.891 59.787C110.48 59.9861 111.066 60.1911 111.652 60.3962C112.071 60.5392 112.49 60.6818 112.908 60.8241C114.021 61.2032 115.131 61.5875 116.241 61.9729C117.385 62.3693 118.531 62.7613 119.677 63.1539C121.69 63.8446 123.701 64.5395 125.712 65.2364C127.268 65.7754 128.825 66.31 130.383 66.8425C131.405 67.1919 132.425 67.5433 133.445 67.8959C133.89 68.0494 134.335 68.2023 134.78 68.3545C135.379 68.56 135.977 68.7684 136.574 68.9779C137.053 69.1443 137.053 69.1443 137.543 69.314C138.772 69.8342 139.743 70.3176 140.491 71.453C140.984 72.732 140.976 73.8543 140.969 75.2138C140.972 75.6321 140.972 75.6321 140.975 76.059C140.98 76.9807 140.979 77.9022 140.977 78.8239C140.979 79.4693 140.98 80.1146 140.982 80.7599C140.984 82.1147 140.984 83.4694 140.981 84.8242C140.978 86.5458 140.983 88.2674 140.991 89.989C140.996 91.324 140.996 92.6589 140.995 93.9939C140.994 94.6276 140.996 95.2614 140.999 95.8951C141.05 106.81 137.33 116.617 129.884 124.66C129.375 125.172 128.857 125.672 128.331 126.166C128.107 126.391 127.882 126.616 127.651 126.848C127.426 127.073 127.201 127.299 126.97 127.53C126.827 127.683 126.684 127.836 126.537 127.993C124.84 129.769 122.932 131.239 120.978 132.715C120.826 132.831 120.673 132.947 120.516 133.067C118.014 134.962 115.373 136.572 112.629 138.092C112.214 138.322 111.8 138.555 111.387 138.79C106.996 141.288 106.996 141.288 104.365 140.629C103.035 140.132 101.801 139.46 100.568 138.762C100.024 138.455 99.4753 138.161 98.9233 137.869C94.1544 135.312 89.9001 132.018 85.924 128.361C85.4939 127.976 85.0505 127.606 84.5974 127.249C84.0041 126.765 83.5288 126.289 83.0367 125.706C82.544 125.125 82.0525 124.55 81.5314 123.995C75.3346 117.354 71.1155 108.125 71.0904 98.9881C71.0886 98.7034 71.0868 98.4188 71.0849 98.1255C71.0796 97.1883 71.0764 96.2511 71.0737 95.3138C71.0726 94.9928 71.0715 94.6718 71.0703 94.3411C71.0646 92.6439 71.0607 90.9467 71.0582 89.2495C71.0552 87.4978 71.0458 85.7463 71.035 83.9946C71.0279 82.6458 71.0256 81.2969 71.0246 79.948C71.0233 79.3022 71.0201 78.6564 71.0151 78.0106C71.0084 77.1073 71.0087 76.2043 71.0106 75.301C71.0053 74.9025 71.0053 74.9025 71 74.4959C71.0126 72.8386 71.2338 71.8418 72.228 70.499C74.3343 68.7761 77.7769 68.1264 80.3281 67.2778C80.8547 67.101 81.3812 66.9239 81.9076 66.7467C83.2902 66.2819 84.6736 65.8194 86.0571 65.3574C87.7222 64.8011 89.3864 64.2422 91.0507 63.6835C92.3493 63.2475 93.6481 62.8119 94.9474 62.3779C95.1874 62.2975 95.4274 62.2172 95.6746 62.1344C96.1475 61.9762 96.6205 61.8183 97.0937 61.661C98.291 61.2605 99.4799 60.8448 100.663 60.4035C101.025 60.2702 101.025 60.2702 101.395 60.1343C101.849 59.9663 102.302 59.7949 102.753 59.6191C105.035 58.7804 107.043 58.812 109.347 59.6038ZM103.919 68.7944C103.454 68.952 103.454 68.952 102.98 69.1127C102.644 69.2286 102.307 69.3446 101.961 69.464C101.604 69.5854 101.248 69.7067 100.892 69.8279C99.9476 70.1496 99.0037 70.4733 98.06 70.7974C97.135 71.1147 96.2094 71.4301 95.2838 71.7456C90.1365 73.5017 84.9951 75.2749 79.8537 77.0481C79.8409 79.5867 79.8313 82.1252 79.8254 84.6638C79.8226 85.8432 79.8188 87.0226 79.8126 88.202C79.7493 100.483 81.088 110.015 89.6581 119.344C89.7824 119.48 89.9067 119.615 90.0348 119.755C91.9967 121.864 94.1697 123.627 96.4668 125.347C96.618 125.462 96.7693 125.577 96.9251 125.696C98.8757 127.174 100.906 128.504 103.003 129.765C103.221 129.9 103.44 130.034 103.665 130.173C104.582 130.711 105.214 131.072 106.288 131.099C107.358 130.706 108.296 130.187 109.267 129.594C109.47 129.472 109.672 129.351 109.881 129.225C113.996 126.717 117.724 123.72 121.25 120.436C121.522 120.186 121.522 120.186 121.799 119.93C128.214 113.791 131.902 105.564 132.16 96.6991C132.223 93.6353 132.198 90.5698 132.182 87.5056C132.176 86.3236 132.174 85.1416 132.171 83.9596C132.165 81.6557 132.156 79.3519 132.144 77.0481C131.904 76.9669 131.663 76.8856 131.416 76.802C129.125 76.0278 126.834 75.2534 124.543 74.4786C123.366 74.0806 122.189 73.6826 121.012 73.2849C119.874 72.9005 118.737 72.5159 117.599 72.131C117.154 71.9805 116.709 71.83 116.264 71.6797C113.516 70.7506 110.769 69.8177 108.046 68.8154C106.482 68.2514 105.477 68.2616 103.919 68.7944Z" fill="#F22D13"/>
<path d="M24.0458 47.444C24.3962 47.4425 24.3962 47.4425 24.7538 47.441C25.5397 47.4379 26.3256 47.4369 27.1115 47.4359C27.6738 47.4341 28.2361 47.4323 28.7984 47.4304C30.3283 47.4256 31.8582 47.4228 33.3882 47.4205C34.3439 47.4191 35.2996 47.4174 36.2553 47.4157C39.2451 47.4105 42.2348 47.4066 45.2246 47.4043C48.6765 47.4017 52.1284 47.3945 55.5804 47.3834C58.2479 47.3752 60.9154 47.3711 63.5829 47.3702C65.1764 47.3696 66.7698 47.3671 68.3633 47.3603C69.8627 47.3539 71.3621 47.3527 72.8616 47.3555C73.4114 47.3557 73.9612 47.3539 74.511 47.3502C75.2629 47.3453 76.0144 47.3473 76.7663 47.3509C76.9828 47.3479 77.1993 47.3449 77.4223 47.3418C78.9492 47.3594 80.1125 47.7319 81.3913 48.578C82.6609 49.9127 82.8562 51.0299 82.8354 52.8152C82.6832 54.1699 81.9319 54.9051 80.9469 55.7728C79.7897 56.5951 78.8696 56.5489 77.4885 56.5498C77.2518 56.551 77.015 56.5522 76.7711 56.5534C75.973 56.5571 75.1749 56.5588 74.3768 56.5604C73.8065 56.5626 73.2362 56.5649 72.6658 56.5672C70.7884 56.5744 68.9111 56.5786 67.0337 56.5825C66.3879 56.5839 65.7421 56.5854 65.0963 56.5869C62.4101 56.5928 59.7238 56.5979 57.0376 56.601C53.1857 56.6054 49.3339 56.6145 45.4821 56.6301C42.7751 56.6407 40.0681 56.646 37.3611 56.6474C35.7438 56.6484 34.1265 56.6517 32.5092 56.6606C30.9871 56.6688 29.4651 56.6706 27.9429 56.6673C27.3847 56.6673 26.8265 56.6695 26.2684 56.6743C25.5051 56.6806 24.7422 56.6783 23.9789 56.6739C23.7591 56.6777 23.5392 56.6815 23.3127 56.6854C21.6841 56.6627 20.5875 56.1621 19.321 55.1405C18.3281 53.9117 18.3633 52.8066 18.4045 51.2793C18.5788 49.8523 19.2636 49.1499 20.2951 48.2191C21.5051 47.3814 22.6294 47.4437 24.0458 47.444Z" fill="#F22D13"/>
<path d="M124.65 83.247C125.634 83.9102 126.138 84.6557 126.508 85.7656C126.834 87.749 126.393 89.0038 125.26 90.6277C124.127 92.1427 122.958 93.6307 121.788 95.117C120.794 96.3846 119.836 97.6757 118.886 98.9761C117.528 100.833 116.149 102.67 114.75 104.496C113.133 106.609 111.54 108.739 109.969 110.887C109.56 111.447 109.148 112.005 108.735 112.562C108.547 112.819 108.36 113.076 108.166 113.34C107.364 114.24 106.68 114.689 105.48 114.869C105.069 114.869 105.069 114.869 104.65 114.87C104.24 114.878 104.24 114.878 103.822 114.886C102.247 114.628 101.145 113.518 100.045 112.42C99.8003 112.177 99.5559 111.934 99.304 111.684C99.0423 111.422 98.7808 111.159 98.5192 110.896C98.2471 110.624 97.9749 110.353 97.7026 110.081C97.1345 109.514 96.5674 108.946 96.001 108.377C95.2759 107.648 94.5484 106.923 93.8201 106.198C93.2585 105.638 92.6982 105.077 92.1382 104.516C91.8704 104.248 91.6023 103.98 91.3337 103.713C90.9587 103.339 90.5857 102.963 90.2128 102.588C90.0004 102.375 89.7879 102.162 89.5691 101.943C88.4126 100.632 88.3655 99.4988 88.3967 97.7926C88.5499 96.5863 88.9749 95.8723 89.8675 95.0625C91.0443 94.2141 92.1095 94.1408 93.5151 94.1065C95.407 94.4593 96.7105 95.7772 97.9991 97.1079C98.165 97.2757 98.3309 97.4434 98.5019 97.6162C99.0267 98.1473 99.5485 98.6812 100.07 99.2153C100.597 99.7519 101.125 100.288 101.653 100.823C101.98 101.155 102.307 101.488 102.633 101.822C103.417 102.647 103.417 102.647 104.36 103.266C104.435 103.107 104.51 102.948 104.587 102.784C104.899 102.186 105.243 101.672 105.644 101.13C105.866 100.829 105.866 100.829 106.093 100.521C106.254 100.304 106.415 100.088 106.581 99.8647C106.75 99.6367 106.919 99.4086 107.093 99.1737C108.536 97.2306 110.003 95.3063 111.474 93.3847C112.721 91.7527 113.946 90.1057 115.16 88.4487C115.619 87.8262 116.078 87.2041 116.537 86.5823C116.787 86.2433 117.036 85.9037 117.284 85.5631C119.24 82.8796 121.409 81.4761 124.65 83.247Z" fill="#F22D13"/>
<path d="M24.6326 70.8584C24.9742 70.8565 25.3159 70.8546 25.6679 70.8526C26.6018 70.8486 27.5355 70.8495 28.4694 70.853C29.4485 70.8558 30.4276 70.8532 31.4067 70.8515C33.0506 70.8495 34.6945 70.8521 36.3385 70.8573C38.2369 70.8633 40.1351 70.8614 42.0335 70.8553C43.6658 70.8504 45.2981 70.8497 46.9305 70.8525C47.9043 70.8542 48.8781 70.8545 49.852 70.8509C50.9379 70.8471 52.0237 70.8523 53.1096 70.8584C53.5916 70.8551 53.5916 70.8551 54.0834 70.8517C55.7957 70.8695 56.8541 70.9306 58.1484 72.0937C59.2645 73.3303 59.6041 74.2242 59.5733 75.9069C59.4395 77.2106 58.8233 78.0522 57.8579 78.8784C56.8188 79.6521 56.3847 79.7844 55.114 79.7902C54.6712 79.7931 54.6712 79.7931 54.2195 79.7961C53.8942 79.7968 53.5689 79.7976 53.2338 79.7983C52.7215 79.801 52.7215 79.801 52.199 79.8038C51.0646 79.8092 49.9303 79.8124 48.796 79.8151C48.4055 79.8162 48.015 79.8173 47.6245 79.8185C45.7896 79.8237 43.9547 79.8276 42.1198 79.8298C40.0021 79.8325 37.8846 79.8397 35.767 79.8508C34.1301 79.859 32.4932 79.8631 30.8562 79.864C29.8786 79.8646 28.9012 79.8671 27.9236 79.8739C26.8324 79.8815 25.7412 79.8803 24.6499 79.8784C24.1653 79.8837 24.1653 79.8837 23.6709 79.8891C21.9518 79.8781 20.8935 79.8237 19.5938 78.6562C18.6016 77.6118 18.4152 76.7742 18.3633 75.3749C18.4152 73.9757 18.6016 73.138 19.5938 72.0937C21.1306 70.7174 22.6381 70.8447 24.6326 70.8584Z" fill="#F22D13"/>
<path d="M24.3195 24.1274C24.7386 24.1239 24.7386 24.1239 25.1662 24.1204C26.0878 24.114 27.0093 24.1137 27.9309 24.114C28.5732 24.1121 29.2154 24.11 29.8577 24.1077C31.2032 24.104 32.5487 24.1036 33.8943 24.1052C35.6162 24.1068 37.3379 24.0985 39.0597 24.0874C40.386 24.0803 41.7123 24.0796 43.0386 24.0805C43.6733 24.0801 44.308 24.0775 44.9427 24.0726C45.8315 24.0665 46.7199 24.0692 47.6087 24.074C47.9995 24.0685 47.9995 24.0685 48.3983 24.063C50.1507 24.085 51.3234 24.4791 52.6791 25.6094C53.672 26.8382 53.6368 27.9433 53.5956 29.4706C53.4221 30.8913 52.737 31.592 51.7221 32.5308C50.7429 33.1918 49.9205 33.2994 48.755 33.304C48.5189 33.3056 48.2828 33.3072 48.0396 33.3088C47.6543 33.3092 47.6543 33.3092 47.2612 33.3097C46.989 33.3111 46.7168 33.3124 46.4363 33.3138C45.5358 33.3178 44.6353 33.3197 43.7347 33.3212C43.1088 33.3228 42.4828 33.3243 41.8569 33.3259C40.5444 33.3288 39.2319 33.3304 37.9194 33.3313C36.238 33.3328 34.5566 33.3394 32.8752 33.3472C31.5822 33.3523 30.2892 33.3537 28.9962 33.3541C28.3763 33.3549 27.7565 33.3571 27.1366 33.3607C26.2693 33.3654 25.4022 33.3649 24.535 33.3631C24.2792 33.3656 24.0235 33.3681 23.76 33.3707C22.1508 33.3604 20.9184 33.1719 19.6904 32.0256C18.3943 30.3306 18.2603 29.102 18.4994 26.9766C18.9468 25.8698 19.5396 25.2699 20.5399 24.6356C21.8274 24.112 22.9426 24.1232 24.3195 24.1274Z" fill="#F22D13"/>
</g>
<defs>
<clipPath id="clip0_2558_1739">
<rect width="140" height="140" fill="white" transform="translate(1 1)"/>
</clipPath>
</defs>
</svg>
