<svg width="53" height="52" viewBox="0 0 53 52" fill="none" xmlns="http://www.w3.org/2000/svg">
<g filter="url(#filter0_d_673_3364)">
<circle cx="26.63" cy="26.0119" r="19.3214" fill="white"/>
</g>
<g clip-path="url(#clip0_673_3364)">
<path d="M33.2201 23.2014C33.0652 23.2014 32.9841 23.2014 32.903 23.2014C31.0933 23.2014 29.2836 23.2007 27.474 23.2014C26.1166 23.2021 25.2371 24.0802 25.2325 25.4376C25.2318 25.7257 25.2364 26.0138 25.2312 26.3012C25.2193 26.9585 24.7756 27.4147 24.1599 27.4075C23.5593 27.4009 23.1097 26.9374 23.1275 26.2953C23.1453 25.6314 23.1156 24.9498 23.2587 24.3096C23.6885 22.3879 25.3868 21.099 27.3995 21.0918C29.2256 21.0858 31.0518 21.0904 32.8779 21.0904C32.9656 21.0904 33.0533 21.0904 33.1911 21.0904C33.1107 20.9995 33.0672 20.9447 33.0184 20.8953C32.6294 20.5044 32.2338 20.1207 31.8515 19.7238C31.4454 19.3019 31.4487 18.6624 31.8455 18.255C32.2523 17.8376 32.9063 17.8165 33.3302 18.2352C34.3956 19.2874 35.4543 20.3461 36.5059 21.4115C36.9219 21.8328 36.9245 22.4558 36.5092 22.8777C35.4583 23.9444 34.3995 25.0032 33.3335 26.0547C32.9037 26.4786 32.2629 26.4601 31.8495 26.0428C31.4434 25.6327 31.444 24.9867 31.864 24.5562C32.2938 24.1158 32.7342 23.6853 33.2201 23.2007V23.2014Z" fill="#2E2E2E"/>
<path d="M19.3931 31.6981C19.8315 32.1293 20.2791 32.5525 20.7063 32.9942C21.1612 33.4643 21.0992 34.202 20.5916 34.5771C20.1855 34.8771 19.6205 34.8652 19.2539 34.5039C18.1695 33.4359 17.0929 32.3607 16.0269 31.2749C15.6412 30.8813 15.6465 30.2576 16.0321 29.8647C17.0935 28.7862 18.1642 27.7155 19.2427 26.6535C19.6614 26.2408 20.3015 26.2645 20.7076 26.6726C21.1098 27.0774 21.1249 27.7182 20.7182 28.1401C20.285 28.5897 19.8321 29.0209 19.3522 29.4949C19.4596 29.5067 19.5183 29.5186 19.5776 29.5186C21.4447 29.5193 23.3117 29.5232 25.1794 29.5186C26.4116 29.5153 27.3062 28.6233 27.3279 27.3885C27.3332 27.0675 27.3253 26.7471 27.3299 26.426C27.3398 25.7667 27.7789 25.3092 28.394 25.3125C29.0051 25.3158 29.4521 25.7813 29.4343 26.4425C29.4165 27.0978 29.4455 27.7716 29.3044 28.4038C28.8759 30.3262 27.1803 31.6203 25.1695 31.6289C23.3433 31.6362 21.5172 31.6302 19.691 31.6309C19.602 31.6309 19.513 31.6309 19.424 31.6309C19.4135 31.6533 19.4029 31.6757 19.3924 31.6981H19.3931Z" fill="#2E2E2E"/>
</g>
<defs>
<filter id="filter0_d_673_3364" x="0.985219" y="0.367055" width="51.2893" height="51.2896" filterUnits="userSpaceOnUse" color-interpolation-filters="sRGB">
<feFlood flood-opacity="0" result="BackgroundImageFix"/>
<feColorMatrix in="SourceAlpha" type="matrix" values="0 0 0 0 0 0 0 0 0 0 0 0 0 0 0 0 0 0 127 0" result="hardAlpha"/>
<feOffset/>
<feGaussianBlur stdDeviation="3.16169"/>
<feComposite in2="hardAlpha" operator="out"/>
<feColorMatrix type="matrix" values="0 0 0 0 0.739176 0 0 0 0 0.739176 0 0 0 0 0.739176 0 0 0 0.25 0"/>
<feBlend mode="normal" in2="BackgroundImageFix" result="effect1_dropShadow_673_3364"/>
<feBlend mode="normal" in="SourceGraphic" in2="effect1_dropShadow_673_3364" result="shape"/>
</filter>
<clipPath id="clip0_673_3364">
<rect width="21.0779" height="16.858" fill="white" transform="translate(15.7402 17.9319)"/>
</clipPath>
</defs>
</svg>
